<svg width="16" height="16" viewBox="0 0 16 16" fill="none" xmlns="http://www.w3.org/2000/svg">
<path d="M8 12.6654C10.2067 12.6654 12 10.872 12 8.66536V5.33203C12 3.12536 10.2067 1.33203 8 1.33203C5.79333 1.33203 4 3.12536 4 5.33203V8.66536C4 10.872 5.79333 12.6654 8 12.6654Z" stroke="#6B7280" stroke-linecap="round" stroke-linejoin="round"/>
<path d="M2 7.33203V8.66536C2 11.9787 4.68667 14.6654 8 14.6654C11.3133 14.6654 14 11.9787 14 8.66536V7.33203" stroke="#6B7280" stroke-linecap="round" stroke-linejoin="round"/>
<path d="M6.07422 4.98516C7.26089 4.55182 8.55422 4.55182 9.74089 4.98516" stroke="#6B7280" stroke-linecap="round" stroke-linejoin="round"/>
<path d="M6.6875 6.98531C7.4875 6.76531 8.33417 6.76531 9.13417 6.98531" stroke="#6B7280" stroke-linecap="round" stroke-linejoin="round"/>
</svg>
