<svg width="16" height="16" viewBox="0 0 16 16" fill="none" xmlns="http://www.w3.org/2000/svg">
<path d="M7.3125 15.1667C4.8325 15.1667 2.8125 13.1467 2.8125 10.6667V6.66667C2.8125 3.82 5.1325 1.5 7.97917 1.5C10.8258 1.5 13.1458 3.82 13.1458 6.66667V10.3333C13.1458 11.8933 11.8725 13.1667 10.3125 13.1667C8.7525 13.1667 7.47917 11.8933 7.47917 10.3333V8C7.47917 7.72667 7.70583 7.5 7.97917 7.5C8.2525 7.5 8.47917 7.72667 8.47917 8V10.3333C8.47917 11.3467 9.29917 12.1667 10.3125 12.1667C11.3258 12.1667 12.1458 11.3467 12.1458 10.3333V6.66667C12.1458 4.36667 10.2792 2.5 7.97917 2.5C5.67917 2.5 3.8125 4.36667 3.8125 6.66667V10.6667C3.8125 12.5933 5.37917 14.1667 7.3125 14.1667C7.58583 14.1667 7.8125 14.3933 7.8125 14.6667C7.8125 14.94 7.5925 15.1667 7.3125 15.1667Z" fill="#6B7280"/>
</svg>
